<svg width="207" height="65" viewBox="0 0 207 65" fill="none" xmlns="http://www.w3.org/2000/svg">
<path fill-rule="evenodd" clip-rule="evenodd" d="M28.9952 31.0688C31.6963 27.5554 36.0219 25.2793 40.8971 25.2793C45.8011 25.2793 50.1486 27.5823 52.8466 31.1309C52.7317 31.2451 52.6272 31.3634 52.5324 31.4816C52.0382 32.1004 51.6664 32.8975 51.3685 33.707C50.7687 35.3349 50.3111 37.4614 49.8875 39.4527L49.8498 39.6317C49.4271 41.6193 49.0342 43.4678 48.5591 44.8401C48.3457 45.4565 48.1433 45.8924 47.9639 46.1715C47.7766 45.8901 47.5641 45.449 47.3392 44.8237C46.8311 43.4121 46.4037 41.492 45.9508 39.4418L45.9361 39.3747V39.3746C45.5008 37.4054 45.039 35.316 44.4632 33.7167C44.174 32.9133 43.8191 32.1241 43.3549 31.511C42.8993 30.9094 42.141 30.2303 41.0319 30.2303C39.9298 30.2303 39.168 30.902 38.7058 31.4969C38.2326 32.1061 37.8638 32.8919 37.5599 33.6957C36.9479 35.3143 36.4476 37.4317 35.9819 39.4257L35.9338 39.6317C35.4728 41.607 35.0417 43.4537 34.5524 44.8285C34.3657 45.3536 34.1894 45.753 34.0299 46.0384C33.8739 45.7544 33.7021 45.3576 33.5204 44.837C33.051 43.4914 32.6398 41.6964 32.1982 39.7685L32.1209 39.431C31.6633 37.4358 31.1668 35.3147 30.5462 33.691C30.2378 32.8842 29.8606 32.0944 29.3725 31.4824C29.2619 31.3439 29.1363 31.2032 28.9952 31.0688ZM27.3603 33.7665C27.489 34.0121 27.6251 34.3166 27.7658 34.6847C28.303 36.0902 28.7582 38.0079 29.2269 40.0517L29.3181 40.4499C29.7449 42.3146 30.1888 44.2544 30.7116 45.753C30.9898 46.5501 31.3256 47.3308 31.7575 47.9375C32.166 48.5114 32.8988 49.2525 34.0255 49.2525C35.149 49.2525 35.8835 48.5149 36.2947 47.9437C36.7304 47.3384 37.0717 46.5586 37.3554 45.761C37.8993 44.2327 38.3624 42.2474 38.8056 40.3475V40.3474L38.8734 40.057C39.3509 38.0121 39.8106 36.0905 40.3439 34.6799C40.591 34.0264 40.8223 33.5711 41.0237 33.2887C41.2145 33.5687 41.4325 34.0167 41.6638 34.659C42.172 36.0707 42.5989 37.9907 43.052 40.0409L43.0669 40.108C43.5021 42.0773 43.9638 44.1667 44.5396 45.7659C44.8288 46.5696 45.1837 47.3587 45.6479 47.9717C46.1036 48.5735 46.8618 49.2525 47.9707 49.2525C49.0856 49.2525 49.8411 48.5673 50.2913 47.9601C50.7485 47.3441 51.0922 46.5524 51.3699 45.7499C51.9037 44.2086 52.328 42.2088 52.7327 40.3063V40.3063L52.7907 40.0301C53.2264 37.9824 53.6446 36.0699 54.161 34.6687C54.2728 34.3639 54.383 34.104 54.4881 33.8857C55.2793 35.6393 55.7182 37.5756 55.7182 39.611C55.7182 47.5261 49.0828 53.9428 40.8971 53.9428C32.7116 53.9428 26.0759 47.5261 26.0759 39.611C26.0759 37.5294 26.5349 35.5513 27.3603 33.7665ZM40.8971 22.413C31.0745 22.413 23.1117 30.1128 23.1117 39.611C23.1117 49.1092 31.0745 56.8089 40.8971 56.8089C50.72 56.8089 58.6824 49.1092 58.6824 39.611C58.6824 30.1128 50.72 22.413 40.8971 22.413ZM41.236 33.0487C41.236 33.0491 41.2325 33.0518 41.2256 33.0557C41.2325 33.0504 41.236 33.0484 41.236 33.0487ZM40.8263 33.0507C40.8194 33.0466 40.816 33.0438 40.816 33.0435C40.816 33.0431 40.8195 33.0452 40.8263 33.0507ZM47.7454 46.4436C47.7454 46.4436 47.7486 46.4405 47.755 46.4365C47.7486 46.4418 47.7454 46.444 47.7454 46.4436ZM48.1763 46.4321C48.1832 46.4361 48.1869 46.4387 48.1869 46.4392C48.1869 46.4396 48.1832 46.4374 48.1763 46.4321ZM33.7217 46.4694C33.7217 46.4689 33.726 46.4649 33.7345 46.4591C33.726 46.4667 33.7217 46.4698 33.7217 46.4694ZM34.322 46.4618C34.3305 46.4676 34.3348 46.4716 34.3348 46.472C34.3347 46.4725 34.3304 46.4698 34.322 46.4618Z" fill="#81818B"/>
<path d="M68.503 49.7926L64.1902 35.5269H67.9679L70.5259 45.7947L73.5 35.5269H77.7238L80.6984 45.7947L83.2859 35.5269H87.0637L82.7208 49.7926H78.7651L75.6119 39.122L72.4593 49.7926H68.503Z" fill="#81818B"/>
<path d="M92.6067 50.1379C91.3378 50.1379 90.2965 49.9458 89.4835 49.5623C88.6711 49.1598 88.0661 48.6325 87.6692 47.9806C87.2728 47.3285 87.0746 46.6096 87.0746 45.8235C87.0746 44.5006 87.6097 43.4267 88.6804 42.6022C89.7511 41.7777 91.3579 41.3655 93.4994 41.3655H97.2471V41.0203C97.2471 40.0424 96.9594 39.3234 96.3844 38.8632C95.8095 38.403 95.0953 38.173 94.243 38.173C93.4693 38.173 92.795 38.3551 92.2201 38.7194C91.6451 39.0646 91.2881 39.5823 91.1494 40.2725H87.4311C87.5305 39.2371 87.8876 38.3359 88.5019 37.5689C89.1368 36.802 89.9498 36.2171 90.9408 35.8145C91.9329 35.3927 93.0429 35.1818 94.2725 35.1818C96.3746 35.1818 98.0301 35.6898 99.24 36.7061C100.449 37.7224 101.054 39.1605 101.054 41.0203V49.7927H97.8117L97.4551 47.4919C97.0189 48.2588 96.4041 48.8913 95.6113 49.3901C94.8376 49.8885 93.8362 50.1379 92.6067 50.1379ZM93.4693 47.2615C94.5602 47.2615 95.4027 46.9163 95.9973 46.2261C96.6121 45.536 96.9992 44.6825 97.1581 43.6664H93.9154C92.9042 43.6664 92.1808 43.8485 91.744 44.2128C91.3083 44.5578 91.0899 44.9896 91.0899 45.5071C91.0899 46.0632 91.3083 46.4946 91.744 46.8013C92.1808 47.108 92.7552 47.2615 93.4693 47.2615Z" fill="#81818B"/>
<path d="M107.047 49.7926L101.634 35.5269H105.62L109.367 46.3126L113.115 35.5269H117.101L111.658 49.7926H107.047Z" fill="#81818B"/>
<path d="M124.754 50.1379C123.267 50.1379 121.949 49.8308 120.798 49.2174C119.649 48.6037 118.747 47.7409 118.092 46.6287C117.437 45.5169 117.111 44.232 117.111 42.7748C117.111 41.2984 117.428 39.9849 118.062 38.8345C118.717 37.684 119.609 36.7924 120.739 36.1596C121.889 35.5077 123.237 35.1818 124.784 35.1818C126.232 35.1818 127.511 35.4885 128.621 36.1021C129.732 36.7157 130.595 37.5593 131.209 38.6331C131.843 39.6877 132.161 40.8669 132.161 42.1708C132.161 42.3817 132.151 42.6022 132.131 42.8323C132.131 43.0624 132.121 43.3021 132.101 43.5513H120.888C120.967 44.6634 121.364 45.536 122.078 46.1689C122.811 46.8013 123.694 47.1178 124.725 47.1178C125.498 47.1178 126.143 46.9549 126.658 46.6287C127.193 46.2838 127.59 45.8427 127.848 45.3056H131.715C131.437 46.207 130.971 47.0317 130.317 47.7795C129.682 48.5078 128.889 49.083 127.937 49.505C127.005 49.9267 125.944 50.1379 124.754 50.1379ZM124.784 38.173C123.853 38.173 123.029 38.4318 122.315 38.9495C121.602 39.448 121.146 40.215 120.947 41.2504H128.294C128.234 40.3109 127.878 39.5631 127.223 39.007C126.569 38.451 125.756 38.173 124.784 38.173Z" fill="#81818B"/>
<path d="M134.173 49.7926V29.0842H137.98V49.7926H134.173Z" fill="#81818B"/>
<path d="M147.849 50.1379C146.362 50.1379 145.043 49.8308 143.893 49.2174C142.743 48.6037 141.841 47.7409 141.186 46.6287C140.532 45.5169 140.205 44.232 140.205 42.7748C140.205 41.2984 140.522 39.9849 141.156 38.8345C141.811 37.684 142.703 36.7924 143.834 36.1596C144.984 35.5077 146.332 35.1818 147.879 35.1818C149.326 35.1818 150.605 35.4885 151.716 36.1021C152.826 36.7157 153.689 37.5593 154.303 38.6331C154.938 39.6877 155.256 40.8669 155.256 42.1708C155.256 42.3817 155.245 42.6022 155.226 42.8323C155.226 43.0624 155.215 43.3021 155.196 43.5513H143.982C144.062 44.6634 144.459 45.536 145.172 46.1689C145.905 46.8013 146.788 47.1178 147.82 47.1178C148.592 47.1178 149.237 46.9549 149.753 46.6287C150.288 46.2838 150.685 45.8427 150.942 45.3056H154.81C154.532 46.207 154.065 47.0317 153.411 47.7795C152.776 48.5078 151.983 49.083 151.031 49.505C150.1 49.9267 149.039 50.1379 147.849 50.1379ZM147.879 38.173C146.947 38.173 146.124 38.4318 145.41 38.9495C144.696 39.448 144.24 40.215 144.041 41.2504H151.388C151.329 40.3109 150.972 39.5631 150.318 39.007C149.663 38.451 148.851 38.173 147.879 38.173Z" fill="#81818B"/>
<path d="M163.365 50.1379C162.057 50.1379 160.906 49.9364 159.915 49.5339C158.923 49.1118 158.13 48.5367 157.535 47.8079C156.941 47.0796 156.584 46.2359 156.465 45.2772H160.301C160.42 45.8329 160.738 46.3127 161.254 46.7152C161.789 47.0987 162.473 47.2904 163.305 47.2904C164.139 47.2904 164.744 47.1275 165.12 46.8013C165.517 46.4755 165.715 46.1014 165.715 45.6798C165.715 45.066 165.438 44.6537 164.882 44.4428C164.327 44.2128 163.553 43.9924 162.562 43.7814C161.928 43.6472 161.284 43.4842 160.629 43.2925C159.974 43.1008 159.37 42.861 158.815 42.5735C158.279 42.2666 157.843 41.8832 157.505 41.423C157.168 40.9436 157 40.3588 157 39.6685C157 38.403 157.516 37.3389 158.547 36.476C159.598 35.6132 161.065 35.1818 162.949 35.1818C164.694 35.1818 166.082 35.5748 167.113 36.361C168.164 37.1471 168.788 38.2305 168.987 39.611H165.388C165.169 38.5564 164.347 38.0291 162.919 38.0291C162.205 38.0291 161.65 38.1634 161.254 38.4318C160.877 38.7003 160.688 39.0358 160.688 39.4384C160.688 39.8603 160.976 40.1958 161.551 40.4451C162.126 40.6944 162.889 40.9244 163.841 41.1354C164.872 41.3655 165.814 41.6243 166.667 41.9119C167.539 42.1804 168.233 42.5927 168.749 43.1487C169.264 43.6855 169.522 44.4619 169.522 45.4783C169.542 46.3606 169.304 47.1559 168.809 47.8656C168.313 48.5748 167.599 49.1309 166.667 49.5339C165.735 49.9364 164.634 50.1379 163.365 50.1379Z" fill="#81818B"/>
<path d="M177.803 50.1379C176.494 50.1379 175.344 49.9364 174.353 49.5339C173.361 49.1118 172.568 48.5367 171.973 47.8079C171.378 47.0796 171.021 46.2359 170.902 45.2772H174.739C174.858 45.8329 175.175 46.3127 175.691 46.7152C176.226 47.0987 176.91 47.2904 177.743 47.2904C178.576 47.2904 179.181 47.1275 179.558 46.8013C179.954 46.4755 180.153 46.1014 180.153 45.6798C180.153 45.066 179.875 44.6537 179.319 44.4428C178.765 44.2128 177.991 43.9924 177 43.7814C176.365 43.6472 175.721 43.4842 175.066 43.2925C174.412 43.1008 173.807 42.861 173.252 42.5735C172.717 42.2666 172.28 41.8832 171.943 41.423C171.606 40.9436 171.437 40.3588 171.437 39.6685C171.437 38.403 171.953 37.3389 172.984 36.476C174.035 35.6132 175.502 35.1818 177.386 35.1818C179.131 35.1818 180.519 35.5748 181.55 36.361C182.601 37.1471 183.226 38.2305 183.424 39.611H179.825C179.607 38.5564 178.784 38.0291 177.357 38.0291C176.642 38.0291 176.087 38.1634 175.691 38.4318C175.314 38.7003 175.126 39.0358 175.126 39.4384C175.126 39.8603 175.413 40.1958 175.988 40.4451C176.563 40.6944 177.327 40.9244 178.278 41.1354C179.31 41.3655 180.251 41.6243 181.104 41.9119C181.977 42.1804 182.671 42.5927 183.186 43.1487C183.702 43.6855 183.96 44.4619 183.96 45.4783C183.98 46.3606 183.742 47.1559 183.246 47.8656C182.75 48.5748 182.036 49.1309 181.104 49.5339C180.172 49.9364 179.072 50.1379 177.803 50.1379Z" fill="#81818B"/>
</svg>
