<svg aria-hidden="true" style="position: absolute; width: 0; height: 0; overflow: hidden;" version="1.1" xmlns="http://www.w3.org/2000/svg" xmlns:xlink="http://www.w3.org/1999/xlink">
    <defs>
        <symbol id="icon-arrow-up" viewBox="0 0 32 32">
            <path d="M16 3c7.18 0 13 5.82 13 13s-5.82 13-13 13v0c-7.18 0-13-5.82-13-13s5.82-13 13-13v0zM16 32c8.837 0 16-7.163 16-16s-7.163-16-16-16v0c-8.837 0-16 7.163-16 16s7.163 16 16 16v0zM9.45 13.588c-0.287 0.262-0.45 0.631-0.45 1.025 0 0.769 0.625 1.394 1.394 1.394h2.606v6c0 1.106 0.894 2 2 2h2c1.106 0 2-0.894 2-2v-6h2.606c0.769 0 1.394-0.625 1.394-1.394 0-0.387-0.163-0.756-0.45-1.025l-5.688-5.25c-0.238-0.219-0.544-0.338-0.869-0.338s-0.631 0.119-0.869 0.338l-5.688 5.25z"></path>
        </symbol>
    </defs>
</svg>
